<svg width="30" height="30" viewBox="0 0 30 30" fill="none" xmlns="http://www.w3.org/2000/svg">
<mask id="mask0_1_123" style="mask-type:alpha" maskUnits="userSpaceOnUse" x="0" y="0" width="30" height="30">
<rect width="30" height="30" fill="#D9D9D9"/>
</mask>
<g mask="url(#mask0_1_123)">
<path d="M18.6778 15.1876C19.0755 14.6132 19.9245 14.6132 20.3222 15.1876L27.4136 25.4308C27.8728 26.094 27.3981 27 26.5914 27H12.4086C11.6019 27 11.1272 26.094 11.5864 25.4308L18.6778 15.1876Z" fill="#D3B8FF"/>
<line x1="12.0347" y1="7.17285" x2="12.0347" y2="14.3108" stroke="#9452FF"/>
<rect x="11.5" y="4" width="7" height="5" rx="1.3" fill="#DBC5FF"/>
<path d="M11.1808 13.1703C11.5789 12.6016 12.4211 12.6016 12.8192 13.1703L21.3986 25.4265C21.8625 26.0893 21.3884 27 20.5793 27H3.42066C2.61163 27 2.13748 26.0893 2.60142 25.4265L11.1808 13.1703Z" fill="#B385FF"/>
</g>
</svg>
